<svg width="594" height="443" viewBox="0 0 594 443" fill="currentcolor" xmlns="http://www.w3.org/2000/svg">
<path d="M258.092 442.212C257.881 442.003 254.255 441.628 250.034 441.38C238.963 440.728 221.483 436.115 209.452 430.669C201.627 427.127 191.151 420.239 185.416 414.867C151.807 385.701 125.005 355.336 100.67 331.261C57.47 288.537 21.7599 253.181 21.3147 252.692C11.5976 240.062 6.59636 229.86 3.44019 217.505C-1.32178 199.091 -0.655188 178.567 5.25525 161.62C7.57023 154.982 14.6316 140.894 17.3438 137.502C18.2848 136.325 20.7201 133.347 22.7555 130.884C26.57 126.267 26.8577 124.735 24.4546 121.832C21.5706 118.349 17.4563 103.148 16.3524 91.8972C15.5966 84.1947 15.6449 81.7592 16.6676 75.9823C18.5141 65.5524 19.2662 62.3205 20.5559 59.2721C22.3605 53.6158 24.0478 50.5293 26.2998 46.2366C32.8417 33.6491 47.3782 20.2227 62.9231 12.4104C97.5541 -4.99411 146.45 -2.73784 176.366 17.6451C179.43 19.7325 190.818 30.2023 202.871 42.0125C214.494 53.4016 224.335 62.7082 224.741 62.6939C225.146 62.6796 226.666 60.0972 228.117 56.9553C232.046 48.4506 237.709 40.4349 245.27 32.6746C260.183 17.3683 279.589 7.31495 302.983 2.77579C307.626 1.87497 311.783 1.27712 311.96 1.12094C321.734 0.0649511 327.039 0.204434 329.251 0.227844C342.28 0.363044 347.729 0.738116 354.013 1.93256C363.138 3.66682 376.168 7.80085 383.79 11.3798C389.71 13.9076 389.88 14.5964 392.216 15.7786C394.523 16.9208 403.746 23.2928 406.411 25.5859C412.611 30.92 571.03 188.215 573.567 191.555C580.045 200.119 583.855 207.376 586.705 215.048C588.388 219.445 591.211 229.898 591.988 234.606C592.449 237.396 593.062 248.034 593.351 258.246C593.753 284.715 592.663 296.052 592.653 313.299C592.642 339.584 592.368 349.898 591.527 355.63C586.361 390.856 565.745 417.541 532.277 432.323C512.76 440.944 488.138 444.155 463.32 441.315C452.239 440.047 438.767 436.899 433.053 434.241C422.475 430.307 412.075 424.118 403.125 416.456C401.226 414.777 393.225 407.112 385.345 399.421C369.189 383.652 371.469 384.502 367.051 392.597C364.747 396.82 360.208 402.761 356.124 406.9C352.356 412.414 347.996 414.815 344.805 417.56C333.366 427.406 311.818 436.684 292.35 440.146C284.56 441.531 258.959 443.076 258.092 442.212ZM344.805 273.807C373.165 270.001 395.421 257.391 409.055 237.405C414.66 229.188 417.877 221.882 420.9 210.501C422.578 204.185 422.616 203.022 422.883 150.674C423.113 105.348 422.974 96.0762 421.962 89.2587C419.22 70.7951 411.88 56.2882 399.065 44.0081C391.911 37.1524 386.266 33.1909 377.418 28.8184C353.216 16.8575 321.174 14.7949 294.158 23.4588C265.894 32.523 246.015 52.8824 238.325 80.6426L236.256 88.108L236.014 143.693C235.805 191.863 235.934 200.152 236.988 205.837C240.634 225.503 250.018 241.816 264.361 253.419C285.286 270.348 314.816 277.833 344.805 273.807ZM317.947 217.033C306.45 213.749 299.223 205.889 297.229 194.502C296.655 191.221 296.456 174.753 296.613 143.431L296.844 97.2022L298.612 92.8812C303.206 81.652 314.872 74.8456 329.524 74.8456C343.813 74.8456 355.797 81.8678 360.303 92.8812L362.071 97.2022L362.294 144.189C362.487 184.824 362.353 191.907 361.302 196.582C359.293 205.525 353.172 212.427 344.157 215.914C338.802 217.985 323.559 218.636 317.947 217.033ZM487.277 273.792C504.321 270.599 515.509 259.791 516.468 245.593C517.645 228.177 508.825 219.285 487.272 216.16C482.986 215.538 477.114 214.684 474.223 214.261C467.572 213.29 464.78 211.86 463.219 208.627C462.171 206.456 462.132 205.703 462.964 203.719C464.421 200.245 467.804 197.837 472.614 196.851C480.252 195.285 487.6 198.129 488.918 203.16L489.55 205.575L501.589 205.808L513.627 206.042V203.884C513.627 199.824 511.264 192.694 508.599 188.711C499.136 174.571 474.271 169.749 455.577 178.429C449.821 181.102 443.534 187.28 440.882 192.867C439.021 196.79 438.809 198.095 438.812 205.575C438.815 212.961 439.043 214.391 440.808 218.114C446.081 229.237 454.973 233.719 475.249 235.477C485.961 236.405 490.588 238.292 491.681 242.179C493.038 247.004 487.89 251.167 479.622 251.929C471.077 252.717 463.069 249.591 461.906 245.013L461.416 243.089H449.081H436.746L437.298 247.052C438.849 258.192 444.329 265.232 455.451 270.372C464.97 274.771 475.823 275.938 487.277 273.792ZM130.324 273.335C153.883 270.531 172.344 262.435 186.906 248.52C220.776 216.155 218.597 162.27 182.203 132.24L178.832 129.458L181.912 125.429C191.811 112.48 195.723 99.698 194.936 82.8772C194.423 71.9125 193.144 66.8594 188.586 57.7939C178.482 37.693 159.004 24.3383 133.393 19.9521C124.312 18.3968 105.642 18.3935 96.6565 19.9451C79.3284 22.9385 66.047 29.1738 54.9219 39.5384C41.8256 51.7396 34.767 68.0343 34.7992 85.9915C34.8256 100.689 39.0134 112.791 48.2976 124.997L51.5698 129.3L49.8506 130.412C42.7115 135.032 32.2171 147.435 27.3148 157.047C16.0607 179.113 15.8964 204.811 26.8677 226.967C39.8559 253.195 67.2499 270.145 102.315 273.649C108.529 274.27 123.912 274.098 130.324 273.335ZM103.309 218.75C85.5437 212.715 77.9523 191.939 87.1887 174.635C90.0413 169.291 94.1323 165.63 100.78 162.473C105.534 160.215 106.2 160.106 114.976 160.142C126.309 160.188 130.859 161.685 137.279 167.48C146.481 175.785 149.481 187.764 145.491 200.27C143.046 207.933 137.878 213.681 129.956 217.548C125.395 219.774 124.287 219.991 116.527 220.171C109.536 220.334 107.245 220.087 103.309 218.75ZM105.148 105.939C99.651 103.817 96.5328 101.105 94.2173 96.4313C92.3748 92.7122 92.1808 91.6036 92.5034 86.6384C92.8207 81.7567 93.2087 80.5699 95.5323 77.3741C99.4382 72.0019 105.264 69.2424 113.419 68.9008C120.732 68.5946 124.419 69.4315 129.343 72.5154C134.886 75.9873 137.067 79.9967 137.413 87.3501C137.679 93.0165 137.542 93.6758 135.314 97.4331C132.784 101.702 127.971 105.333 123.06 106.681C118.57 107.913 109.265 107.527 105.148 105.939Z" fill="#ffffff"/>
</svg>
